<?xml version="1.0" encoding="utf-8"?>
<svg version="1.1" id="Layer_1" xmlns="http://www.w3.org/2000/svg" xmlns:xlink="http://www.w3.org/1999/xlink" x="0px" y="0px"
	 viewBox="0 0 16 16" style="enable-background:new 0 0 16 16;" xml:space="preserve">
<style type="text/css">
	.st0{fill:#4E2B99;}
</style>
<path class="st0" d="M20.2,5.7c0.2-0.3,1.8-2.1,2-2.4c0.1-0.3,0.1-0.6,0-0.8c-0.1-0.3-0.7-0.4-1-0.5c-2.3-0.5-7.4,1.1-8.4,2.9V2.3
	c0-0.7-0.7-1.3-1.5-1.3S9.9,1.6,9.9,2.3v2.4C9,4.5,8.8,4.4,8,4.4c-4.5,0-8,3.7-8,8.2c0,2.5,1.2,8.7,11.5,11c0.2,0,0.4,0.1,0.6,0.1
	c0.2,0,0.4,0,0.6-0.1c10.2-2.3,11.4-8.5,11.4-11C24,9.7,22.5,7.1,20.2,5.7z M12.1,21c-2.8-0.6-9.2-2.8-9.2-8.4c0-3,2.5-5.5,5.5-5.5
	c0.4,0,0.8,0.1,1.2,0.2C9,7.9,8.5,8.8,8.1,9.6c-0.3,0.7,0,1.5,0.7,1.8c0.2,0.1,0.4,0.1,0.5,0.1c0.5,0,1-0.3,1.2-0.8
	c0.1-0.3,0.3-0.5,0.4-0.8c0.5-0.8,1.1-1.4,1.7-1.9l0.1-0.1c0.9-0.6,1.9-0.9,3-0.9c0.9,0,1.8,0.2,2.5,0.6c1.8,0.9,3,2.8,3,4.9
	C21.3,18.2,14.9,20.3,12.1,21z"/>
</svg>
